# xmcd
#
# Track frame offsets:
#	150
#	18154
#	30067
#	50806
#	62972
#	93053
#	109802
#	125301
#	135719
#	153093
#	169910
#	186682
#	206160
#	240763
#	260188
#	279756
#	300298
#
# Disc length: 4089 seconds
#
# Revision: 0
# Processed by: cddbd v1.5.1PL0 Copyright (c) Steve Scherf et al.
# Submitted via: EasyCDDAExtractor 8.0.1.1
#
DISCID=de0ff711
DTITLE=Les Ogres de Barback - L'observatoire de Cergy
DYEAR=2003
DGENRE=Chanson
TTITLE0=La manche
TTITLE1=Au café du canal
TTITLE2=Contes, vents et marées
TTITLE3=Née arménienne
TTITLE4=L'éducation du corps des porcs
TTITLE5=Vue d'ensemble
TTITLE6=Tatie
TTITLE7=Pour me rendre à mon bureau
TTITLE8=Little gentleman
TTITLE9=Flûte
TTITLE10=Tout perdu
TTITLE11=Les voyageurs
TTITLE12=Fainéant - Grosse tortue
TTITLE13=Vieux temps
TTITLE14=Solene de Grenoble
TTITLE15=Monde en or
TTITLE16=Rue de Paname
EXTD=
EXTT0=
EXTT1=
EXTT2=
EXTT3=
EXTT4=
EXTT5=
EXTT6=
EXTT7=
EXTT8=
EXTT9=
EXTT10=
EXTT11=
EXTT12=
EXTT13=
EXTT14=
EXTT15=
EXTT16=
PLAYORDER=
